<?xml version="1.0" standalone="no"?>
<!DOCTYPE svg PUBLIC "-//W3C//DTD SVG 20010904//EN"
 "http://www.w3.org/TR/2001/REC-SVG-20010904/DTD/svg10.dtd">
<svg version="1.0" xmlns="http://www.w3.org/2000/svg"
 width="4501.000000pt" height="4501.000000pt" viewBox="0 0 4501.000000 4501.000000"
 preserveAspectRatio="xMidYMid meet">
<metadata>
Created by potrace 1.14, written by Peter Selinger 2001-2017
</metadata>
<g transform="translate(0.000000,4501.000000) scale(0.100000,-0.100000)"
fill="#000000" stroke="none">
<path d="M8399 39445 c-13 -22 -121 -211 -242 -419 -121 -209 -227 -394 -237
-410 -9 -17 -47 -82 -84 -145 -36 -62 -66 -115 -66 -117 0 -2 -19 -36 -43 -76
-24 -40 -62 -104 -84 -143 -120 -205 -223 -384 -241 -415 -24 -43 -334 -580
-406 -705 -86 -147 -242 -417 -265 -457 -33 -60 -56 -98 -96 -168 -21 -35 -38
-70 -38 -77 0 -7 -4 -13 -8 -13 -4 0 -37 -53 -74 -117 -93 -162 -96 -168 -146
-253 -24 -41 -51 -88 -59 -105 -8 -16 -17 -32 -20 -35 -4 -3 -37 -59 -74 -125
-83 -144 -89 -155 -156 -270 -29 -49 -60 -106 -70 -125 l-18 -35 14087 0
c7747 1 14094 -1 14103 -3 13 -3 17 -11 14 -28 -3 -15 19 -63 71 -151 41 -70
87 -150 103 -178 15 -27 61 -106 100 -175 86 -147 215 -372 367 -635 60 -104
145 -251 188 -325 43 -74 86 -148 95 -165 9 -16 43 -75 75 -130 32 -55 68
-118 80 -140 13 -22 41 -71 64 -110 l40 -70 -15307 -3 -15307 -2 -78 -138
c-43 -75 -109 -190 -147 -256 -39 -65 -70 -120 -70 -122 0 -2 -24 -43 -53 -91
-29 -48 -67 -113 -84 -143 -17 -30 -46 -82 -65 -115 -203 -350 -294 -506 -313
-540 -27 -49 -37 -66 -170 -295 -59 -102 -117 -203 -130 -225 -37 -65 -127
-221 -205 -355 -39 -69 -82 -143 -94 -165 -13 -22 -74 -128 -136 -235 -62
-107 -122 -211 -133 -230 -20 -36 -119 -207 -237 -410 -37 -63 -147 -254 -245
-425 -97 -170 -185 -321 -194 -335 -26 -38 -34 -61 -37 -105 -1 -22 -2 -45 -3
-51 0 -6 -13 -11 -28 -10 -28 1 -30 -2 -148 -209 -12 -22 -39 -69 -60 -105
-21 -36 -46 -79 -56 -97 -10 -17 -29 -50 -43 -72 -15 -22 -26 -43 -26 -45 0
-3 -14 -29 -31 -58 -38 -64 -34 -56 -199 -343 -73 -126 -142 -246 -153 -265
-11 -19 -28 -47 -39 -62 -11 -16 -16 -28 -12 -28 4 0 0 -8 -8 -17 -13 -16 -93
-152 -166 -283 -13 -25 -28 -49 -32 -55 -7 -9 -66 -112 -275 -475 -39 -69
-102 -176 -138 -239 -37 -62 -67 -115 -67 -116 0 -2 -21 -39 -46 -82 -39 -65
-256 -441 -342 -591 l-24 -42 57 -98 c32 -53 68 -115 80 -137 23 -40 176 -305
243 -420 19 -33 43 -76 54 -95 64 -111 264 -457 341 -590 50 -85 114 -195 142
-245 78 -135 325 -563 503 -870 58 -100 74 -128 97 -170 13 -22 71 -123 130
-225 59 -102 121 -207 137 -235 16 -27 34 -60 40 -72 8 -17 20 -23 42 -23 31
0 32 -1 30 -47 -1 -47 11 -77 80 -194 12 -19 48 -82 81 -140 33 -57 63 -105
67 -107 4 -2 8 -8 8 -14 0 -5 16 -37 36 -71 20 -34 48 -82 62 -107 14 -25 73
-126 130 -225 58 -99 119 -205 135 -235 17 -30 38 -66 47 -80 9 -14 34 -56 55
-95 21 -38 42 -71 47 -73 4 -2 8 -8 8 -13 0 -8 147 -267 360 -634 125 -216
199 -344 227 -394 59 -103 508 -879 529 -913 13 -21 24 -39 24 -41 0 -2 55
-98 121 -213 67 -115 131 -225 141 -244 11 -19 42 -72 69 -118 27 -45 49 -87
49 -92 0 -6 5 -10 10 -10 6 0 10 -4 10 -10 0 -5 32 -64 72 -132 72 -124 273
-473 310 -538 11 -19 53 -91 93 -160 102 -177 185 -320 205 -355 9 -16 77
-133 150 -260 73 -126 144 -250 158 -275 14 -25 69 -119 122 -210 53 -91 99
-172 103 -180 8 -16 29 -52 116 -202 123 -211 166 -285 307 -528 81 -140 161
-280 177 -310 17 -30 38 -66 47 -80 9 -14 29 -48 45 -77 15 -29 32 -50 38 -46
6 3 7 2 4 -4 -5 -8 24 -65 113 -218 12 -22 33 -58 45 -80 13 -22 46 -80 75
-130 29 -49 62 -106 72 -125 101 -176 154 -266 160 -268 5 -2 8 -8 8 -13 0 -9
110 -202 260 -459 37 -63 77 -132 89 -152 57 -101 249 -434 304 -528 52 -88
72 -124 115 -199 14 -25 38 -68 55 -95 16 -28 39 -67 50 -86 69 -123 152 -266
157 -270 3 -3 13 -21 24 -40 55 -103 80 -148 97 -172 11 -14 19 -28 19 -30 0
-3 39 -72 86 -154 152 -261 317 -548 343 -594 14 -25 29 -46 33 -48 4 -2 8 -8
8 -13 0 -5 25 -53 56 -107 31 -53 66 -113 77 -132 16 -29 169 -292 197 -340
12 -20 77 -134 108 -190 14 -25 35 -61 47 -80 12 -19 33 -55 47 -80 14 -25 83
-145 154 -268 71 -123 138 -240 150 -260 11 -20 47 -82 79 -137 32 -55 67
-116 78 -135 10 -19 43 -75 72 -125 29 -49 121 -209 205 -355 203 -352 184
-319 320 -555 51 -88 102 -176 113 -195 16 -29 192 -333 260 -450 11 -19 36
-62 55 -95 19 -33 42 -73 52 -90 28 -47 390 -675 415 -720 13 -22 71 -123 130
-225 59 -102 119 -206 134 -231 14 -25 89 -154 166 -287 77 -133 150 -259 161
-280 12 -21 47 -83 79 -138 32 -54 94 -162 138 -239 44 -77 85 -145 92 -150 8
-7 227 -10 621 -10 l609 0 49 85 c83 144 198 343 216 375 9 17 74 128 143 248
70 120 138 237 151 260 13 23 39 69 58 102 19 33 79 137 133 230 54 94 128
222 165 285 37 63 77 132 89 152 27 49 46 82 111 193 29 50 62 108 75 130 20
36 67 118 116 202 11 18 27 48 37 65 11 18 78 134 149 258 72 124 141 243 153
265 12 22 53 92 90 155 64 111 318 551 358 621 10 19 40 69 66 112 25 43 46
81 46 83 0 2 11 21 23 42 27 41 121 202 159 272 14 25 67 117 118 205 52 88
98 170 104 182 6 13 14 23 19 23 4 0 7 5 7 10 0 9 78 149 131 235 11 17 22 36
25 44 4 7 30 52 57 100 27 47 61 106 75 131 14 25 36 62 49 82 12 21 23 40 23
42 0 3 18 35 41 73 50 83 48 80 101 173 24 41 47 83 53 92 5 9 17 29 26 45 9
15 32 55 51 88 38 64 120 207 294 510 l110 190 5511 3 5511 2 33 -57 c18 -32
38 -67 44 -78 19 -34 284 -494 358 -620 38 -66 81 -140 95 -165 14 -25 36 -62
49 -82 12 -21 23 -40 23 -44 0 -3 8 -18 19 -32 10 -15 30 -49 46 -77 15 -27
69 -122 120 -210 96 -165 263 -455 296 -512 11 -18 29 -50 41 -70 12 -21 33
-58 47 -83 13 -25 27 -47 30 -50 3 -3 15 -23 27 -45 16 -32 134 -236 304 -530
38 -66 204 -353 225 -390 22 -38 257 -445 296 -512 11 -18 29 -50 40 -70 12
-21 43 -75 70 -121 27 -45 49 -85 49 -87 0 -3 23 -42 50 -86 27 -44 50 -82 50
-83 0 -2 30 -55 66 -117 37 -63 79 -136 94 -164 15 -27 98 -170 183 -317 86
-147 168 -289 183 -315 14 -26 50 -88 79 -138 114 -195 194 -332 214 -367 11
-21 29 -53 40 -70 10 -18 35 -62 56 -98 21 -36 46 -80 56 -98 11 -17 29 -49
40 -70 12 -20 42 -73 68 -117 26 -44 50 -87 54 -95 4 -8 17 -31 29 -50 11 -19
33 -55 47 -81 14 -25 54 -94 89 -155 l63 -109 616 0 615 0 22 40 c18 33 70
124 106 185 5 8 29 49 52 90 24 41 47 83 53 92 5 9 17 29 26 45 9 15 32 55 51
88 35 59 112 192 263 455 43 74 111 194 153 265 73 127 141 245 296 513 42 73
76 137 76 141 0 5 4 11 8 13 4 2 19 23 33 48 14 25 70 122 124 215 54 94 122
210 149 258 28 48 56 96 61 105 6 9 31 53 56 97 25 44 68 119 96 166 27 48 53
93 57 100 3 8 14 28 25 44 23 38 162 279 371 640 47 83 148 257 224 388 75
131 145 253 155 270 10 18 69 119 130 225 61 106 120 207 130 225 10 17 48 83
85 146 36 62 66 115 66 117 0 1 22 39 50 83 27 45 46 81 43 81 -3 0 1 8 9 18
8 9 52 82 98 162 46 80 91 159 100 175 10 17 68 118 130 225 62 107 121 210
132 227 37 66 57 101 122 211 36 62 66 115 66 117 0 1 17 32 38 66 22 35 50
84 64 109 60 107 73 129 118 205 26 44 59 100 72 125 14 25 66 115 115 200
125 215 277 478 300 520 11 19 34 58 50 86 17 27 41 70 55 95 14 24 75 130
135 234 61 105 120 206 130 225 51 90 218 379 238 410 12 19 25 42 29 50 4 8
12 24 19 35 18 30 101 174 124 215 17 31 95 165 156 270 11 19 34 59 51 89 17
29 40 70 52 90 105 182 134 235 134 247 0 8 4 14 9 14 8 0 59 84 159 260 10
19 79 139 152 265 121 208 207 358 262 455 11 19 44 76 73 125 29 50 62 107
74 127 34 60 56 99 88 154 17 27 41 70 55 95 14 24 83 143 153 264 70 121 137
238 150 260 138 243 271 471 277 473 5 2 8 12 8 22 0 10 3 20 8 22 4 2 38 57
76 123 112 194 328 567 346 600 10 17 116 201 237 410 121 209 230 397 242
418 11 20 29 52 40 70 10 17 60 104 111 192 51 88 127 219 168 290 108 187
222 385 432 750 134 233 775 1342 855 1480 51 88 102 177 114 198 12 20 29 52
40 70 10 17 34 59 53 92 19 33 70 121 113 195 43 74 86 149 95 165 180 314
254 442 260 450 4 6 19 30 33 55 31 57 88 155 322 560 103 179 211 366 240
415 28 50 101 176 162 280 123 213 290 502 320 555 11 19 106 184 211 365 105
182 192 335 194 341 3 11 -151 287 -164 292 -4 2 -8 9 -8 15 0 7 -23 50 -50
95 -28 46 -61 103 -74 125 -38 69 -59 104 -161 282 -54 94 -109 189 -123 213
-13 23 -29 43 -35 43 -22 3 -4897 4 -4897 2 0 -3 188 -331 476 -829 l134 -232
-33 -58 c-34 -59 -164 -284 -352 -609 -152 -264 -420 -729 -453 -785 -26 -47
-224 -389 -297 -515 -111 -192 -283 -490 -302 -525 -11 -19 -71 -122 -132
-228 -61 -106 -121 -209 -132 -230 -12 -20 -45 -77 -74 -127 -44 -74 -271
-467 -335 -580 -9 -16 -38 -65 -64 -108 -25 -43 -46 -80 -46 -82 0 -2 -13 -25
-29 -52 -42 -68 -236 -405 -244 -423 -4 -8 -16 -28 -26 -45 -15 -25 -91 -155
-261 -450 -35 -61 -203 -352 -297 -514 -53 -91 -104 -179 -113 -196 -58 -101
-245 -425 -260 -450 -10 -16 -41 -70 -70 -120 -50 -86 -69 -119 -120 -210 -12
-22 -37 -65 -56 -96 -19 -31 -34 -61 -34 -67 0 -6 -4 -12 -8 -14 -7 -3 -36
-52 -160 -268 -25 -46 -219 -382 -337 -585 -51 -88 -102 -176 -113 -195 -11
-19 -60 -105 -109 -190 -88 -152 -157 -271 -413 -715 -70 -121 -153 -265 -185
-320 -32 -55 -90 -156 -130 -225 -248 -426 -290 -504 -288 -528 2 -16 -4 -26
-17 -29 -16 -4 -256 -405 -430 -718 -12 -22 -43 -76 -69 -120 -44 -73 -251
-431 -298 -515 -11 -19 -50 -86 -87 -149 -36 -62 -66 -115 -66 -116 0 -2 -26
-47 -58 -102 -33 -54 -111 -188 -174 -298 -63 -110 -149 -259 -191 -332 -42
-72 -86 -148 -97 -167 -38 -67 -57 -101 -87 -152 -17 -27 -41 -70 -55 -95 -57
-101 -222 -385 -232 -400 -9 -14 -25 7 -91 123 -44 77 -82 145 -84 151 -2 7
-7 14 -10 17 -4 3 -29 43 -55 90 -27 47 -60 105 -74 130 -14 25 -70 121 -124
214 -54 93 -98 171 -98 173 0 3 -8 17 -19 31 -10 15 -29 47 -43 72 -14 25 -67
117 -118 205 -51 88 -104 180 -118 205 -31 57 -88 154 -119 202 -13 21 -23 40
-23 42 0 3 -34 62 -75 131 -41 70 -75 129 -75 131 0 2 -17 32 -38 66 -21 35
-50 83 -64 108 -23 40 -63 111 -119 208 -11 17 -27 47 -37 65 -11 17 -45 77
-77 132 -32 55 -65 114 -75 130 -9 17 -43 75 -75 130 -32 55 -63 109 -69 120
-9 16 -158 273 -206 355 -5 8 -58 101 -118 205 -60 105 -145 251 -187 325 -76
132 -207 360 -247 430 -50 87 -215 373 -263 455 -29 50 -131 225 -226 390 -95
165 -229 397 -297 515 -137 236 -154 265 -188 327 -13 23 -106 183 -205 355
-100 172 -189 327 -199 343 -65 113 -449 778 -520 900 -48 83 -158 274 -245
425 -87 151 -222 385 -300 520 -79 135 -152 261 -162 280 -60 106 -217 376
-223 385 -4 6 -19 30 -32 55 -49 87 -81 144 -111 194 -16 28 -39 67 -50 86
-10 19 -68 119 -128 222 -60 103 -109 192 -109 198 0 5 -4 10 -10 10 -5 0 -10
4 -10 9 0 5 -62 116 -139 247 -76 132 -149 258 -162 280 -13 23 -96 166 -184
319 -88 152 -169 293 -181 313 -48 85 -77 136 -179 312 -59 102 -115 199 -125
215 -9 17 -68 118 -130 225 -62 107 -121 209 -130 225 -10 17 -34 59 -55 95
-21 36 -51 90 -68 120 -16 30 -33 60 -38 65 -4 6 -24 39 -44 75 -21 36 -46 80
-56 98 -11 17 -27 47 -37 65 -11 17 -70 120 -132 227 -62 107 -123 213 -135
235 -13 22 -57 99 -99 170 -41 72 -139 240 -216 375 l-141 245 -1841 0 -1840
0 -55 -95 c-30 -52 -65 -113 -78 -135 -40 -71 -390 -677 -635 -1100 -130 -225
-298 -517 -373 -647 -75 -130 -157 -271 -182 -313 -25 -42 -45 -78 -45 -80 0
-3 -26 -48 -58 -102 -32 -54 -112 -190 -176 -303 -65 -113 -131 -227 -147
-253 -16 -27 -29 -50 -29 -52 0 -3 -16 -29 -35 -59 -19 -30 -35 -57 -35 -60 0
-3 -19 -38 -43 -78 -64 -107 -151 -256 -179 -308 -14 -25 -105 -182 -202 -349
-97 -168 -176 -308 -176 -313 0 -4 -4 -8 -10 -8 -5 0 -10 -5 -10 -11 0 -6 -24
-52 -54 -102 -52 -90 -73 -126 -124 -217 -14 -25 -35 -61 -47 -80 -12 -19 -33
-55 -47 -80 -14 -25 -51 -90 -83 -145 -32 -55 -90 -156 -130 -225 -39 -69 -96
-165 -125 -215 -29 -49 -62 -108 -74 -130 -22 -39 -200 -348 -398 -689 -54
-93 -98 -173 -98 -177 0 -5 -4 -9 -10 -9 -5 0 -10 -5 -10 -10 0 -6 -40 -79
-89 -163 -49 -84 -98 -168 -109 -187 -10 -19 -61 -107 -112 -195 -155 -268
-241 -415 -298 -515 -30 -52 -96 -167 -147 -255 -51 -88 -102 -176 -113 -195
-10 -19 -45 -79 -76 -132 -31 -53 -56 -101 -56 -107 0 -5 -4 -11 -8 -13 -5 -1
-29 -39 -54 -83 -24 -44 -86 -152 -137 -240 -120 -206 -319 -550 -343 -593
-10 -18 -58 -102 -107 -185 -71 -122 -284 -492 -380 -659 -10 -18 -34 -60 -53
-93 -20 -33 -70 -121 -113 -195 -42 -74 -85 -148 -95 -165 -10 -16 -42 -73
-72 -125 -30 -52 -89 -154 -131 -227 -42 -72 -86 -149 -98 -170 -11 -21 -36
-63 -54 -93 -18 -30 -83 -143 -145 -250 -62 -107 -164 -285 -228 -395 -63
-110 -123 -213 -132 -230 -10 -16 -57 -97 -105 -180 -48 -82 -97 -168 -109
-190 -13 -22 -97 -168 -188 -325 -168 -291 -340 -587 -376 -650 -11 -19 -77
-134 -147 -255 -70 -121 -137 -238 -150 -260 -49 -87 -60 -105 -65 -105 -4 0
-139 230 -241 409 -26 45 -188 327 -304 526 -32 55 -69 120 -83 145 -14 25
-63 110 -110 190 -46 80 -111 192 -144 250 -34 58 -72 122 -84 142 -13 21 -24
39 -24 41 0 4 -28 52 -150 262 -20 35 -123 213 -152 265 -57 99 -73 125 -80
128 -4 2 -8 8 -8 13 0 8 -111 204 -376 661 -52 90 -85 138 -96 138 -12 0 -15
7 -13 23 3 15 -16 58 -56 127 -34 58 -72 123 -84 145 -13 22 -71 123 -130 225
-59 102 -119 205 -133 229 -14 25 -38 68 -55 95 -16 28 -37 65 -47 81 -9 17
-51 89 -93 162 -43 72 -77 136 -77 141 0 6 -3 12 -8 14 -4 2 -40 62 -81 133
-41 72 -155 270 -254 440 -99 171 -188 324 -197 340 -17 30 -264 459 -301 523
-11 17 -27 47 -38 65 -15 26 -193 335 -261 452 -55 95 -286 496 -305 530 -13
22 -71 123 -130 225 -59 102 -118 203 -130 225 -55 95 -239 413 -256 440 -10
17 -22 37 -26 45 -4 8 -63 112 -131 230 -69 118 -132 229 -142 245 -83 145
-214 372 -220 380 -4 6 -19 30 -32 55 -14 25 -42 74 -63 110 -21 36 -46 81
-57 100 -34 59 -247 428 -321 555 -38 66 -81 140 -95 165 -14 25 -47 83 -75
130 -27 47 -58 99 -67 115 -55 96 -416 721 -430 745 -8 12 -204 353 -281 488
-11 17 -27 47 -38 65 -42 73 -245 425 -263 457 -11 19 -60 103 -109 187 -49
84 -89 157 -89 163 0 5 -4 10 -10 10 -5 0 -10 4 -10 9 0 10 -356 630 -371 646
-5 5 -9 14 -9 21 0 11 189 344 421 742 66 112 119 205 119 207 0 3 20 38 45
78 25 41 45 80 45 86 0 6 3 11 8 11 4 0 18 21 32 48 14 26 57 102 97 169 40
68 73 125 73 127 0 2 17 33 38 67 22 35 50 84 64 109 115 204 274 476 280 478
5 2 8 12 8 22 0 10 3 20 8 22 4 2 38 57 76 123 179 310 331 573 349 605 11 19
44 76 73 127 30 50 54 96 54 102 0 6 4 11 8 11 5 0 14 11 20 25 l12 25 1822 2
c1816 3 1823 3 1821 23 -1 19 0 19 14 -2 l15 -23 11639 0 11638 0 6 21 c7 20
20 18 20 -4 0 -9 1025 -13 4273 -15 2349 -1 4272 0 4272 2 0 2 -30 55 -66 117
-37 63 -76 130 -87 149 -72 128 -148 260 -203 351 -35 59 -64 110 -64 113 0 4
-11 24 -25 46 -21 33 -183 311 -270 465 -13 22 -71 123 -130 225 -59 102 -116
200 -126 218 -11 18 -54 93 -96 165 -42 73 -87 152 -101 177 -14 25 -52 89
-84 143 -32 55 -58 101 -58 103 0 2 -25 44 -55 94 -30 50 -55 92 -55 94 0 3
-44 80 -98 173 -54 92 -149 256 -211 363 -62 107 -116 202 -121 210 -5 8 -42
71 -81 140 -40 69 -97 168 -127 220 -75 129 -268 465 -300 519 -13 25 -38 68
-55 95 -32 55 -54 94 -88 154 -12 20 -45 78 -74 127 -29 50 -61 106 -72 125
-59 104 -300 520 -320 552 -12 21 -23 40 -23 42 0 2 -21 40 -46 83 -26 43 -56
94 -67 113 -10 19 -52 91 -92 160 -82 141 -287 497 -317 550 -11 19 -32 55
-46 80 -14 25 -42 73 -64 107 -21 34 -38 64 -38 67 0 2 -45 82 -101 178 -108
184 -131 225 -370 638 -84 146 -155 267 -158 270 -3 3 -16 25 -28 50 -13 25
-34 65 -49 90 -46 78 -286 493 -312 540 -14 25 -42 74 -64 109 -21 34 -38 64
-38 66 0 2 -21 39 -46 82 -26 43 -58 98 -72 123 -14 25 -81 141 -149 258 -68
117 -135 234 -150 259 -14 26 -39 70 -56 97 -17 28 -55 94 -85 146 -85 149
-85 149 -203 352 -129 223 -143 247 -177 308 -14 25 -63 110 -110 190 -46 80
-93 161 -104 180 -12 19 -30 51 -40 70 -109 191 -150 259 -161 262 -7 2 -552
4 -1212 4 l-1200 -1 1 -24 2 -24 -19 24 -18 24 -11633 0 -11633 0 -18 -20 c-9
-11 -17 -15 -16 -10 1 6 1 15 0 20 -1 7 -412 10 -1211 10 l-1209 0 -22 -40z
m14168 -18107 c150 -256 173 -297 173 -307 0 -5 4 -11 8 -13 4 -1 21 -25 36
-53 16 -27 40 -70 54 -95 13 -25 72 -126 130 -225 58 -99 119 -205 135 -235
16 -30 33 -59 37 -65 7 -8 178 -304 255 -440 13 -22 46 -80 75 -130 29 -49 62
-106 72 -125 101 -176 154 -266 160 -268 5 -2 8 -8 8 -13 0 -8 220 -397 240
-424 4 -5 19 -30 32 -55 14 -25 42 -74 63 -110 21 -36 49 -85 63 -110 13 -25
47 -83 75 -130 27 -47 58 -100 68 -117 11 -18 27 -48 38 -65 10 -18 103 -179
206 -358 104 -179 200 -345 213 -370 14 -25 28 -47 31 -50 4 -3 13 -18 21 -35
8 -16 38 -70 67 -119 29 -49 53 -90 53 -91 0 -2 72 -127 225 -390 32 -55 69
-120 83 -144 14 -25 38 -68 55 -95 29 -49 47 -80 85 -148 11 -18 62 -107 114
-198 52 -91 100 -175 107 -187 l12 -23 -3056 0 -3055 0 24 38 c19 30 175 299
273 472 11 19 50 86 87 149 36 62 66 115 66 116 0 2 17 32 38 66 22 35 50 84
64 109 60 107 73 129 118 205 26 44 59 100 73 125 13 25 65 115 114 200 148
255 310 535 405 700 50 85 151 261 226 390 74 129 143 249 152 265 69 120 368
637 463 802 64 110 127 221 141 245 13 23 50 88 83 143 32 55 62 107 66 115 4
8 13 24 20 35 7 11 43 74 81 140 38 66 81 140 96 165 15 25 39 65 53 90 13 25
74 131 135 235 149 258 154 266 219 382 32 57 59 103 59 103 1 0 28 -46 61
-102z"/>
</g>
</svg>
